# xmcd
#
# Track frame offsets:
# 150
# 15035
# 19182
# 35647
# 58375
#
# Disc length: 1008 seconds
#
#
# Revision: 0
# Processed by: cddbd v1.5.1PL2 Copyright (c) Steve Scherf et al.
# Submitted via: FreeRIP 2.943 
#
DISCID=3603ee05
DTITLE=王明哲 - 海洋的國家
DYEAR=2004
DGENRE=Pop
TTITLE0=海洋的國家（合音版）
TTITLE1=爸爸的 海洋的國家
TTITLE2=海洋的國家（HIP HOP）
TTITLE3=海洋的國家（抒情版）
TTITLE4=台灣魂（演奏曲）
EXTD=
EXTT0=
EXTT1=
EXTT2=
EXTT3=
EXTT4=
PLAYORDER=
